<?xml version="1.0" standalone="no"?>
<!DOCTYPE svg PUBLIC "-//W3C//DTD SVG 20010904//EN"
 "http://www.w3.org/TR/2001/REC-SVG-20010904/DTD/svg10.dtd">
<svg version="1.0" xmlns="http://www.w3.org/2000/svg"
 width="512.000000pt" height="512.000000pt" viewBox="256 240 512.000000 512.000000"
 preserveAspectRatio="xMidYMid meet">

<g transform="translate(0.000000,1024.000000) scale(0.100000,-0.100000)"
fill="#DAA520" stroke="none">
<path d="M4861 7719 c-205 -18 -434 -68 -616 -134 -149 -54 -391 -169 -515
-245 -399 -244 -784 -674 -960 -1070 -21 -47 -41 -96 -45 -109 l-7 -24 107 6
c60 4 233 7 386 7 l278 0 11 58 c18 86 67 216 119 317 25 50 47 93 49 98 2 4
-57 7 -131 7 -74 0 -149 3 -167 6 -30 6 -31 9 -26 38 10 50 54 106 99 127 35
15 67 19 187 19 l145 1 55 66 c62 76 218 210 324 280 168 111 323 179 521 228
162 41 274 55 440 55 606 0 1170 -273 1559 -754 301 -372 456 -839 418 -1258
-31 -336 -151 -590 -383 -813 -229 -220 -548 -327 -929 -312 -268 11 -375 41
-895 255 -323 133 -696 213 -990 212 -278 -1 -617 -73 -903 -192 -83 -34 -301
-141 -339 -166 -10 -6 -5 -27 21 -88 65 -153 221 -449 234 -442 316 168 555
236 857 245 155 5 197 2 308 -16 200 -35 380 -98 722 -254 289 -133 520 -212
725 -249 153 -28 431 -30 570 -5 407 74 755 262 983 531 34 41 63 73 65 71 7
-7 -61 -129 -128 -229 -241 -360 -662 -605 -1129 -656 -313 -35 -641 19 -1021
166 -581 225 -731 261 -1030 251 -92 -3 -198 -13 -240 -22 -143 -31 -408 -130
-445 -166 -6 -6 32 -51 105 -125 374 -378 801 -612 1312 -719 220 -46 378 -59
617 -52 767 22 1478 389 1938 1002 199 266 335 554 421 900 56 224 75 380 75
610 1 511 -146 1006 -419 1415 -108 161 -177 244 -338 406 -213 212 -384 333
-671 474 -422 207 -863 290 -1324 249z"/>
<path d="M4990 6904 c-73 -32 -127 -107 -137 -193 -6 -57 9 -109 48 -167 16
-23 25 -44 22 -48 -4 -3 -23 -6 -43 -6 -145 0 -454 -88 -648 -184 -152 -75
-248 -143 -363 -256 -114 -113 -259 -279 -259 -297 0 -20 66 -190 84 -218 l16
-25 35 39 c20 22 50 57 68 79 18 22 60 72 94 111 l62 71 125 -141 c151 -169
366 -424 366 -433 0 -3 -385 -6 -856 -6 l-857 0 6 46 c6 54 30 91 78 119 32
19 55 20 391 23 l356 3 -34 102 c-37 109 -74 298 -74 378 0 46 -1 48 -32 54
-18 3 -204 4 -413 3 l-379 -3 -22 -71 c-27 -87 -49 -188 -70 -330 -18 -123
-32 -588 -18 -596 5 -3 358 -1 784 4 546 5 803 5 870 -3 92 -11 265 -44 282
-55 13 -8 33 20 73 103 44 92 73 194 86 311 l10 93 -28 37 c-15 20 -110 132
-212 247 -101 116 -195 225 -209 243 l-26 34 24 18 c161 121 491 230 700 230
l45 0 0 -730 0 -730 135 -55 c74 -30 143 -59 153 -65 17 -10 17 17 17 567 0
318 0 676 0 796 l0 217 49 0 c66 0 287 -45 381 -77 129 -44 320 -148 320 -173
0 -6 -69 -88 -153 -182 -218 -247 -285 -325 -303 -354 -14 -20 -16 -42 -11
-122 13 -250 156 -482 360 -582 251 -124 537 -79 733 115 127 126 186 274 219
543 5 41 22 20 -376 477 -86 99 -188 210 -226 246 -203 191 -492 318 -842 369
-74 11 -136 22 -139 24 -2 3 7 19 21 36 34 40 50 101 45 171 -11 148 -189 253
-328 193z m1405 -1344 c95 -107 195 -223 224 -257 l51 -62 -34 -6 c-36 -7
-943 -1 -950 6 -3 2 85 105 195 229 110 124 221 251 247 282 l47 57 24 -27
c13 -15 101 -115 196 -222z"/>
</g>
</svg>
